<?xml version="1.0" encoding="utf-8"?>
<!-- Generator: Adobe Illustrator 21.0.2, SVG Export Plug-In . SVG Version: 6.00 Build 0)  -->
<svg version="1.1" id="Layer_1" xmlns="http://www.w3.org/2000/svg" xmlns:xlink="http://www.w3.org/1999/xlink" x="0px" y="0px"
	 viewBox="0 0 305.2 122" style="enable-background:new 0 0 305.2 122;" xml:space="preserve">
<style type="text/css">
	.st0{fill:#F89C32;}
	.st1{fill:#201E1E;}
	.st2{fill:#727376;}
</style>
<g id="Layer_x0020_1">
	<path class="st0" d="M61,0.4c31.8,0,48.7,24.2,48.4,23.9c-14.3-0.3-41.2-2.2-51.3,2.2C47,31.5,46.9,38.5,46.6,51
		c0,7.7,0,15.8,0.1,20.6c0,16.9,0,39.2-0.1,49.1c0.4,0.1,0.8,0.1,1.1,0.3C20.5,114.9,0,90.6,0,61.4C0,27.8,27.4,0.4,61,0.4z
		 M120.1,46.5c1.2,4.8,1.9,9.8,1.9,15c0,31.6-24.2,57.7-55.1,60.6c0.1,0,0.4,0,0.7,0c0-11.7-0.1-26.4-0.1-36.6h40.3L102.6,65H67.5
		c0-2.9,0.1-5.6,0.1-8.5c0.1-4.7,1.4-9.1,7.4-9.6C88.9,45.8,105.7,46.3,120.1,46.5z"/>
	<path class="st1" d="M172.5,29.4h-20.1v8.9h18.4v9.1h-18.4V68h-12V20.2h32V29.4z M210.5,68h-31.8V20.2h12v38.6h19.8V68z M235.6,69
		c-6.5,0-11.4-1.6-14.8-4.7c-3.4-3.2-5.2-7.7-5.2-13.6V20.2h12.1V50c0,3.3,0.5,5.8,1.8,7.4c1.2,1.5,3.3,2.3,6.2,2.3
		c2.7,0,4.7-0.7,6-2.3c1.2-1.5,1.9-4,1.9-7.4V20.2h12v30.5c0,5.8-1.6,10.3-4.9,13.5C247.2,67.4,242.2,69,235.6,69z M305.2,68h-13.9
		l-9.2-15.3L272.7,68h-13.3l15.7-24.2l-15-23.6H274l8.7,14.4l8.8-14.4h13.3l-15.1,23.2L305.2,68z"/>
	<path class="st2" d="M148.5,79.9h-2.9v17H143v-17h-3v-2.2h8.5V79.9z M161.8,90.7h-5.6c0,1.5,0.1,2.6,0.3,3.3
		c0.3,0.7,0.7,1.1,1.5,1.1c0.5,0,0.8-0.1,1.1-0.7c0.1-0.4,0.3-1,0.3-1.9h2.3c-0.1,3-1.4,4.7-4,4.7c-2.7,0-4.1-2.2-4.1-6.6
		c0-4.7,1.4-7.1,4.3-7.1c1.1,0,2.1,0.4,2.7,1.2c0.8,0.8,1.2,2.6,1.2,5.1V90.7z M159.3,88.8c0-1.2-0.1-2.2-0.4-2.7
		c-0.1-0.7-0.5-1-1.1-1c-0.7,0-1.1,0.4-1.2,1c-0.3,0.5-0.4,1.5-0.4,2.7H159.3z M175.4,96.5c-0.8,0.4-1.5,0.7-2.2,0.7
		c-1.4,0-2.3-0.5-3-1.6c-0.5-1.2-0.8-2.9-0.8-5.4s0.3-4.3,1.1-5.2s1.8-1.5,2.9-1.5c0.5,0,1.2,0.1,2.1,0.4v2.2
		c-0.5-0.3-1-0.4-1.4-0.4c-0.7,0-1.2,0.4-1.5,1.1c-0.4,0.8-0.5,2.1-0.5,3.7c0,3,0.7,4.5,1.9,4.5c0.4,0,1-0.1,1.5-0.4V96.5z
		 M190.7,96.9h-2.5v-9.6c0-1.2-0.5-1.9-1.5-1.9c-1.1,0-1.6,0.7-1.6,2.2v9.3h-2.5V77h2.5v7.8c0.8-0.8,1.8-1.4,2.7-1.4
		c1.9,0,2.9,1.1,2.9,3.2V96.9z M200.8,83.7V85h0.1c0.5-1,1.5-1.5,2.6-1.5c1.9,0,2.9,1.1,2.9,3.2v10.3H204v-9.6
		c0-1.2-0.5-1.9-1.6-1.9c-0.4,0-0.8,0.1-1.1,0.5c-0.3,0.3-0.4,0.8-0.4,1.4v9.6h-2.5V83.7H200.8z M218.3,83.4c1.4,0,2.3,0.4,3.2,1.5
		c0.7,1,1.1,2.7,1.1,5.5c0,2.6-0.4,4.4-1.2,5.4c-0.8,0.8-1.8,1.4-2.9,1.4c-1.5,0-2.6-0.5-3.3-1.6c-0.7-1.1-1.1-2.9-1.1-5.1
		c0-2.9,0.4-4.7,1.2-5.6C216.1,83.9,217.1,83.4,218.3,83.4L218.3,83.4z M220,91.1c0-2.3-0.1-3.8-0.4-4.5c-0.1-0.7-0.5-1.1-1.2-1.1
		c-0.5,0-1,0.3-1.2,0.8c-0.1,0.5-0.3,1.6-0.3,3c0,2.6,0.1,4.3,0.3,4.9c0.3,0.5,0.7,0.8,1.2,0.8c0.7,0,1.1-0.3,1.2-0.8
		C219.8,93.6,220,92.7,220,91.1z M232.9,96.9h-2.6V77h2.6V96.9z M244.7,83.4c1.2,0,2.2,0.4,3,1.5c0.7,1,1.1,2.7,1.1,5.5
		c0,2.6-0.4,4.4-1.2,5.4c-0.7,0.8-1.6,1.4-2.9,1.4c-1.5,0-2.6-0.5-3.3-1.6c-0.7-1.1-1-2.9-1-5.1c0-2.9,0.4-4.7,1.1-5.6
		c0.8-1,1.9-1.4,3-1.4H244.7z M246.2,91.1c0-2.3-0.1-3.8-0.3-4.5c-0.3-0.7-0.7-1.1-1.2-1.1c-0.7,0-1.1,0.3-1.4,0.8
		c-0.1,0.5-0.3,1.6-0.3,3c0,2.6,0.1,4.3,0.4,4.9c0.3,0.5,0.7,0.8,1.2,0.8c0.5,0,1-0.3,1.2-0.8C246.1,93.6,246.2,92.7,246.2,91.1z
		 M263.9,98.7c0,1.4-0.3,2.3-0.8,2.9c-0.7,0.7-1.6,1-3.2,1c-1.4,0-2.5-0.3-3.2-0.8c-0.5-0.5-1-1.6-0.8-3.2h2.3
		c0,1.5,0.5,2.2,1.6,2.2s1.5-0.5,1.5-1.6v-3.8l0,0c-0.5,1.2-1.4,1.9-2.6,1.9c-0.8,0-1.5-0.4-2.1-1.2c-0.5-0.8-0.8-2.7-0.8-5.9
		c0-2.7,0.1-4.5,0.7-5.4c0.5-0.8,1.4-1.2,2.3-1.2c0.5,0,1.1,0.1,1.4,0.4c0.4,0.3,0.7,0.7,1.1,1.2l0,0v-1.4h2.5V98.7z M260.1,94.8
		c0.5,0,1-0.3,1.1-1c0.3-0.5,0.3-1.6,0.3-3.2c0-2.2,0-3.6-0.3-4.3c-0.1-0.7-0.5-1-1.1-1c-0.5,0-1,0.3-1.2,1
		c-0.3,0.7-0.4,1.6-0.4,3.2c0,1.9,0.1,3.3,0.3,4C259,94.4,259.4,94.8,260.1,94.8z M271.9,79.6c0-0.3,0.1-0.7,0.4-1
		c0.3-0.3,0.5-0.4,1-0.4c0.3,0,0.7,0.1,1,0.4c0.3,0.3,0.3,0.7,0.3,1c0,0.4,0,0.7-0.3,1c-0.3,0.3-0.7,0.4-1,0.4
		c-0.4,0-0.8-0.1-1.1-0.4C272.1,80.3,271.9,80,271.9,79.6z M272.1,83.7h2.5v13.2h-2.5V83.7z M290.5,90.7h-5.6c0,1.5,0.1,2.6,0.3,3.3
		c0.3,0.7,0.7,1.1,1.4,1.1c0.5,0,1-0.1,1.2-0.7c0.1-0.4,0.3-1,0.3-1.9h2.3c-0.1,3-1.5,4.7-4,4.7c-2.7,0-4.1-2.2-4.1-6.6
		c0-4.7,1.4-7.1,4.3-7.1c1.1,0,2.1,0.4,2.7,1.2c0.8,0.8,1.2,2.6,1.2,5.1V90.7z M287.9,88.8c0-1.2,0-2.2-0.3-2.7
		c-0.1-0.7-0.5-1-1.1-1c-0.7,0-1.1,0.4-1.4,1c-0.1,0.5-0.3,1.5-0.3,2.7H287.9z M304.5,85.9c-0.7-0.3-1.4-0.4-1.9-0.4
		c-0.5,0-1,0.1-1.2,0.4c-0.4,0.3-0.5,0.5-0.5,1.1c0,0.3,0.1,0.7,0.4,1c0.3,0.4,0.8,1,1.6,1.6s1.4,1.4,1.8,1.9
		c0.3,0.5,0.5,1.2,0.5,1.9c0,1.1-0.4,1.9-1.1,2.6c-0.7,0.7-1.6,1-2.7,1c-0.7,0-1.5-0.1-2.5-0.5v-2.1c1,0.4,1.8,0.5,2.3,0.5
		s0.8-0.1,1.1-0.3c0.3-0.3,0.4-0.7,0.4-1.1s-0.1-0.8-0.5-1.2c-0.3-0.4-1-1.1-1.8-1.8c-1.2-1-1.9-2.2-1.9-3.6c0-1,0.4-1.8,1.1-2.5
		s1.5-1.1,2.6-1.1c0.5,0,1.4,0.1,2.3,0.5V85.9z"/>
</g>
</svg>
